HIERARCHY
ROOT joint_Root
{
	OFFSET 0.0 0.0 0.0
	CHANNELS 6 Xposition Yposition Zposition Zrotation Xrotation Yrotation 
	JOINT Hips
	{
		OFFSET 4.5925 91.4895 -427.239
		CHANNELS 6 Xposition Yposition Zposition Zrotation Xrotation Yrotation 
		JOINT Spine
		{
			OFFSET 15.7357 0.0 0.0
			CHANNELS 6 Xposition Yposition Zposition Zrotation Xrotation Yrotation 
			JOINT Chest
			{
				OFFSET 8.98455 -0.406207 0.0
				CHANNELS 6 Xposition Yposition Zposition Zrotation Xrotation Yrotation 
				JOINT Neck
				{
					OFFSET 16.3773 0.0 0.0
					CHANNELS 6 Xposition Yposition Zposition Zrotation Xrotation Yrotation 
					JOINT Head
					{
						OFFSET 6.45672 0.0 0.0
						CHANNELS 6 Xposition Yposition Zposition Zrotation Xrotation Yrotation 
						End Site
						{
							OFFSET 0.0 0.0 0.0
						}
					}
				}
				JOINT Shoulder_L
				{
					OFFSET 12.9942 -0.242716 4.98039
					CHANNELS 6 Xposition Yposition Zposition Zrotation Xrotation Yrotation 
					JOINT UpperArm_L
					{
						OFFSET 5.34809 0.0 0.0
						CHANNELS 6 Xposition Yposition Zposition Zrotation Xrotation Yrotation 
						JOINT LowerArm_L
						{
							OFFSET 24.3286 1.87007e-05 0.0
							CHANNELS 6 Xposition Yposition Zposition Zrotation Xrotation Yrotation 
							JOINT Hand_L
							{
								OFFSET 22.2916 0.0 0.0
								CHANNELS 6 Xposition Yposition Zposition Zrotation Xrotation Yrotation 
								End Site
								{
									OFFSET 0.0 0.0 0.0
								}
							}
						}
					}
				}
				JOINT Shoulder_R
				{
					OFFSET 12.9945 -0.242716 -4.98039
					CHANNELS 6 Xposition Yposition Zposition Zrotation Xrotation Yrotation 
					JOINT UpperArm_R
					{
						OFFSET -5.34813 0.0 0.0
						CHANNELS 6 Xposition Yposition Zposition Zrotation Xrotation Yrotation 
						JOINT LowerArm_R
						{
							OFFSET -24.3289 0.000322201 0.0
							CHANNELS 6 Xposition Yposition Zposition Zrotation Xrotation Yrotation 
							JOINT Hand_R
							{
								OFFSET -22.2915 -0.000108084 0.0
								CHANNELS 6 Xposition Yposition Zposition Zrotation Xrotation Yrotation 
								End Site
								{
									OFFSET 0.0 0.0 0.0
								}
							}
						}
					}
				}
			}
		}
		JOINT UpperLeg_L
		{
			OFFSET -2.19248 -6.46944 0.0
			CHANNELS 6 Xposition Yposition Zposition Zrotation Xrotation Yrotation 
			JOINT LowerLeg_L
			{
				OFFSET 39.0811 0.0 -1.23785e-05
				CHANNELS 6 Xposition Yposition Zposition Zrotation Xrotation Yrotation 
				JOINT Foot_L
				{
					OFFSET 40.9854 0.0 -1.26872e-05
					CHANNELS 6 Xposition Yposition Zposition Zrotation Xrotation Yrotation 
					JOINT Toes_L
					{
						OFFSET 11.7543 0.0 0.0
						CHANNELS 6 Xposition Yposition Zposition Zrotation Xrotation Yrotation 
						End Site
						{
							OFFSET 0.0 0.0 0.0
						}
					}
				}
			}
		}
		JOINT UpperLeg_R
		{
			OFFSET -2.19251 6.46944 0.0
			CHANNELS 6 Xposition Yposition Zposition Zrotation Xrotation Yrotation 
			JOINT LowerLeg_R
			{
				OFFSET -39.0811 -0.00228153 -0.0401928
				CHANNELS 6 Xposition Yposition Zposition Zrotation Xrotation Yrotation 
				JOINT Foot_R
				{
					OFFSET -40.9854 0.0 0.0
					CHANNELS 6 Xposition Yposition Zposition Zrotation Xrotation Yrotation 
					JOINT Toes_R
					{
						OFFSET -11.7543 0.0 0.0
						CHANNELS 6 Xposition Yposition Zposition Zrotation Xrotation Yrotation 
						End Site
						{
							OFFSET 0.0 0.0 0.0
						}
					}
				}
			}
		}
	}
}
MOTION
Frames:	5
Frame Time:	0.0333333
0.000000 0.000000 0.000000 0.000000 0.000000 -0.000000 -2.098330 91.920100 1.006960 89.262100 0.150178 4.197970 15.735700 0.000005 -0.000001 74.897400 87.130300 -74.735500 8.984550 -0.406207 -0.000000 -2.223000 -1.509070 0.294432 16.377300 -0.000001 -0.000001 9.892580 -2.323850 1.612030 6.456720 -0.000001 -0.000000 6.366300 -1.382750 1.196570 12.994200 -0.242716 4.980390 -83.326100 -12.103700 -60.836600 5.348090 -0.000007 -0.000001 -61.477300 -65.624700 -102.415000 24.328600 0.000019 0.000005 7.893540 7.028380 -48.570300 22.291600 -0.000001 0.000005 17.042100 5.363810 -1.795970 12.994500 -0.242716 -4.980390 95.151500 -11.001500 -64.713000 -5.348130 -0.000001 -0.000004 -52.258000 -66.802300 -97.031800 -24.328900 0.000322 -0.000009 -7.171270 -6.994010 -45.933500 -22.291500 -0.000108 -0.000004 20.487500 5.551230 -8.763480 -2.192480 -6.469440 -0.000000 -174.044000 -13.262500 -2.304240 39.081100 -0.000007 -0.000012 -0.109990 0.250290 23.723200 40.985400 -0.000006 -0.000013 -0.399221 9.954980 -66.916200 11.754300 -0.000000 0.000003 -0.000130 -0.001289 -16.626700 -2.192510 6.469440 -0.000001 176.635000 24.093800 179.126000 -39.081100 -0.002282 -0.040193 0.010479 -0.016382 23.621100 -40.985400 0.000008 0.000006 7.016460 13.731200 -69.182700 -11.754300 -0.000006 -0.000006 -0.001988 -0.028572 -17.734900
0.000000 0.000000 0.000000 0.000000 0.000000 -0.000000 -2.104240 91.975700 0.978910 89.202300 0.057852 4.088280 15.735700 0.000005 -0.000001 73.871600 87.089600 -73.693300 8.984550 -0.406207 -0.000000 -2.172060 -1.631980 0.325655 16.377300 -0.000001 -0.000001 9.564140 -2.460640 1.629430 6.456720 -0.000001 -0.000000 6.111620 -1.494200 1.240130 12.994200 -0.242716 4.980390 -83.691700 -11.443200 -60.873300 5.348090 -0.000007 -0.000001 -58.534300 -65.596200 -98.880100 24.328600 0.000019 0.000005 7.620520 6.407720 -50.168000 22.291600 -0.000001 0.000005 16.996100 5.358690 -1.639780 12.994500 -0.242716 -4.980390 94.858900 -10.477800 -64.946300 -5.348130 -0.000001 -0.000004 -48.943600 -66.370100 -93.087400 -24.328900 0.000322 -0.000009 -7.312940 -6.913780 -46.828200 -22.291500 -0.000108 -0.000004 19.972000 5.541200 -8.295470 -2.192480 -6.469440 -0.000000 -173.998000 -13.329200 -2.250890 39.081100 -0.000007 -0.000012 -0.109665 0.253570 23.387800 40.985400 -0.000006 -0.000013 -0.431991 9.966880 -66.736900 11.754300 -0.000000 0.000003 -0.000118 -0.001185 -16.622800 -2.192510 6.469440 -0.000001 176.731000 24.171400 179.231000 -39.081100 -0.002282 -0.040193 0.009496 -0.014464 23.136200 -40.985400 0.000008 0.000006 6.943490 13.956600 -68.976900 -11.754300 -0.000006 -0.000006 -0.001665 -0.024442 -17.567000
0.000000 0.000000 0.000000 0.000000 0.000000 -0.000000 -2.099320 92.018400 0.940153 89.154200 -0.113497 3.974140 15.735700 0.000005 -0.000001 73.789600 87.028200 -73.610500 8.984550 -0.406207 -0.000000 -2.056420 -1.674160 0.328171 16.377300 -0.000001 -0.000001 9.141700 -2.673100 1.611080 6.456720 -0.000001 -0.000000 5.920790 -1.796150 1.457500 12.994200 -0.242716 4.980390 -84.103000 -10.775800 -61.082100 5.348090 -0.000007 -0.000001 -54.801700 -65.134600 -93.442300 24.328600 0.000019 0.000005 7.574700 5.673760 -53.370600 22.291600 -0.000001 0.000005 17.265700 5.351520 -1.423260 12.994500 -0.242716 -4.980390 94.449400 -9.841970 -65.523600 -5.348130 -0.000001 -0.000004 -43.875800 -65.555200 -86.388600 -24.328900 0.000322 -0.000009 -7.215170 -6.306900 -49.046500 -22.291500 -0.000108 -0.000004 19.670000 5.524770 -7.566780 -2.192480 -6.469440 -0.000000 -173.991000 -13.453200 -2.260760 39.081100 -0.000007 -0.000012 -0.105078 0.245694 23.155300 40.985400 -0.000006 -0.000013 -0.457322 9.884220 -66.596600 11.754300 -0.000000 0.000003 -0.000129 -0.001280 -16.626400 -2.192510 6.469440 -0.000001 176.791000 24.337900 179.356000 -39.081100 -0.002282 -0.040193 0.008611 -0.012707 22.619800 -40.985400 0.000008 0.000006 6.954690 14.300700 -68.905700 -11.754300 -0.000006 -0.000006 -0.001535 -0.022738 -17.497700
0.000000 0.000000 0.000000 0.000000 0.000000 -0.000000 -2.088050 92.076100 0.900863 89.065600 -0.391588 3.986120 15.735700 0.000005 -0.000001 74.917400 86.916900 -74.727100 8.984550 -0.406207 -0.000000 -1.809800 -1.620010 0.355024 16.377300 -0.000001 -0.000001 8.661630 -2.915890 1.687350 6.456720 -0.000001 -0.000000 5.586350 -2.108750 1.535190 12.994200 -0.242716 4.980390 -84.613000 -9.923340 -61.312600 5.348090 -0.000007 -0.000001 -50.210900 -63.777200 -86.165200 24.328600 0.000019 0.000005 7.917670 4.973190 -58.064700 22.291600 -0.000001 0.000005 17.911700 5.346080 -1.261210 12.994500 -0.242716 -4.980390 93.994500 -9.115970 -66.214400 -5.348130 -0.000001 -0.000004 -38.160100 -63.748800 -77.953100 -24.328900 0.000322 -0.000009 -7.311320 -5.624170 -52.622300 -22.291500 -0.000108 -0.000004 19.458300 5.509880 -6.936300 -2.192480 -6.469440 -0.000000 -173.898000 -13.543600 -2.041310 39.081100 -0.000007 -0.000012 -0.107354 0.255348 22.803100 40.985400 -0.000006 -0.000013 -0.511616 9.756170 -66.430400 11.754300 -0.000000 0.000003 -0.000133 -0.001312 -16.627600 -2.192510 6.469440 -0.000001 176.765000 24.620300 179.603000 -39.081100 -0.002282 -0.040193 -0.002099 0.013329 22.116100 -40.985400 0.000008 0.000006 6.711810 14.952600 -68.586200 -11.754300 -0.000006 -0.000006 -0.001533 -0.022707 -17.496400
0.000000 0.000000 0.000000 0.000000 0.000000 -0.000000 -2.059760 92.129600 0.831050 89.034200 -0.704205 3.938130 15.735700 0.000005 -0.000001 76.617200 86.782700 -76.421700 8.984550 -0.406207 -0.000000 -1.503720 -1.504810 0.371149 16.377300 -0.000001 -0.000001 7.994320 -2.992740 1.641350 6.456720 -0.000001 -0.000000 5.166140 -2.521860 1.711420 12.994200 -0.242716 4.980390 -85.199600 -8.989870 -61.745000 5.348090 -0.000007 -0.000001 -44.734200 -61.532700 -76.629200 24.328600 0.000019 0.000005 7.935190 3.842000 -64.329000 22.291600 -0.000001 0.000005 18.654300 5.336630 -0.979835 12.994500 -0.242716 -4.980390 93.432100 -8.061160 -66.845200 -5.348130 -0.000001 -0.000004 -33.159700 -60.699800 -69.559200 -24.328900 0.000322 -0.000009 -7.460800 -4.874490 -57.018100 -22.291500 -0.000108 -0.000004 19.223700 5.500600 -6.557750 -2.192480 -6.469440 -0.000000 -173.944000 -13.517200 -1.944730 39.081100 -0.000007 -0.000012 -0.103736 0.250630 22.484900 40.985400 -0.000006 -0.000013 -0.587893 9.369210 -66.244400 11.754300 -0.000000 0.000003 -0.000143 -0.001392 -16.630500 -2.192510 6.469440 -0.000001 176.626000 24.998800 179.749000 -39.081100 -0.002282 -0.040193 -0.022107 0.064042 21.653200 -40.985400 0.000008 0.000006 6.144980 15.852100 -68.156400 -11.754300 -0.000006 -0.000006 -0.001553 -0.022971 -17.507200
